# xmcd
#
# Track frame offsets: 
#        150
#        23332
#        38502
#        53699
#        76894
#        93399
#        107396
#
# Disc length: 1645 seconds
#
# Revision: 0
# Processed by: cddbd v1.5.2PL0 Copyright (c) Steve Scherf et al.
# Submitted via: ExactAudioCopy v1.0b3
#
DISCID=3a066b07
DTITLE=Mitsunone Oishi - SWINGIN' CHAMELEON
DYEAR=2013
DGENRE=Japanese Entertainment
TTITLE0=Love For Sale Blues
TTITLE1=I'm Gonna Sit Right Down And White Myself A Letter
TTITLE2=Ochame Sandogasa
TTITLE3=Coffe and Cigarettes
TTITLE4=Tennis
TTITLE5=(Sweet)Milk Shakin' blues
TTITLE6=Candy
EXTD=
EXTT0=
EXTT1=
EXTT2=
EXTT3=
EXTT4=
EXTT5=
EXTT6=
PLAYORDER=
